PathFileType	4	(X/Y/Z)	Patient4_TMGait_0pt7_02_right_47.trc.trc
DataRate	CameraRate	NumFrames	NumMarkers	Units	OrigDataRate	OrigDataStartFrame	OrigNumFrames
90.322580645161	90.322580645161	4	33	mm	90.322580645161	18	       141
Frame#	Time	Sacral			L.Shoulder			Chest			R.Shoulder			Neck			R.ASIS			L.ASIS			R.Thigh.Superior			R.Thigh.Lateral			R.Thigh.Inferior			R.Patella			L.Thigh.Superior			L.Thigh.Lateral			L.Thigh.Inferior			L.Patella			L.Shank.Superior			L.Shank.Lateral			L.Shank.Inferior			R.Shank.Superior			R.Shank.Lateral			R.Shank.Inferior			R.Heel			R.Midfoot.Superior			R.Midfoot.Lateral			R.Toe			L.Heel			L.Midfoot.Lateral			L.Midfoot.Superior			L.Toe			L.Elbow			L.Wrist			R.Elbow			R.Wrist			
		X1	Y1	Z1	X2	Y2	Z2	X3	Y3	Z3	X4	Y4	Z4	X5	Y5	Z5	X6	Y6	Z6	X7	Y7	Z7	X8	Y8	Z8	X9	Y9	Z9	X10	Y10	Z10	X11	Y11	Z11	X12	Y12	Z12	X13	Y13	Z13	X14	Y14	Z14	X15	Y15	Z15	X16	Y16	Z16	X17	Y17	Z17	X18	Y18	Z18	X19	Y19	Z19	X20	Y20	Z20	X21	Y21	Z21	X22	Y22	Z22	X23	Y23	Z23	X24	Y24	Z24	X25	Y25	Z25	X26	Y26	Z26	X27	Y27	Z27	X28	Y28	Z28	X29	Y29	Z29	X30	Y30	Z30	X31	Y31	Z31	X32	Y32	Z32	X33	Y33	Z33	

18	53.428214285714	730.356793349311	1005.803098992805	419.034456014009	949.841496237215	1424.581621865611	254.004087502625	1029.834001575329	1347.585786923597	425.411457366236	933.383152214452	1429.445362136062	587.997496232643	937.707767357069	1485.295927874785	407.252256987296	941.798880507474	934.760153833459	559.689023574427	957.165787169214	955.586068777215	282.327237363145	1024.827795831096	772.132124980581	536.308919249442	983.742803312532	648.986805412756	611.368525751490	1079.930730446638	616.855613759310	537.513096323788	1117.178942710389	530.454208891429	557.883704551687	956.608900093252	730.131947768783	312.615710357771	844.057038149556	636.926587329904	241.666207537577	898.344057951489	542.349103372783	309.668294483796	884.100919278219	477.298754570553	318.412957083010	852.430993709870	412.114809595135	308.679550364785	757.639612449876	304.845193617074	251.404629852361	792.743615629434	191.072747887684	329.071653331347	1094.135221799892	440.192260713228	568.440894020907	1031.206310461083	331.968905416489	632.767932135383	1094.918202800746	240.047117555477	586.011521306503	990.263429172112	58.711958501877	561.368425538984	1156.729087708140	125.103701724580	602.366389218994	1073.714584943944	53.446811197970	634.656024469288	1277.941339613145	81.369054164182	629.127680885374	653.679610799287	39.153796680687	365.023500710676	732.068147946714	34.934361615397	289.019612217421	813.740689783978	95.262827303331	320.129303144185	943.616577203884	42.200594845815	300.364538427720	1018.415161816122	1115.876624885407	86.560129137841	1260.883343735568	1122.813152950206	163.258340669084	798.313494056026	1114.831034814011	713.741062507445	768.800007254638	856.710580498906	743.683343193793	
19	53.439285714286	731.448525199824	1003.823346450942	421.223622314526	950.063368413878	1423.003601194587	255.976066057685	1030.346147630185	1346.065042949374	427.217649562350	934.022497255218	1428.015925464674	589.808366657349	938.102177667514	1483.546431229854	409.033778629625	943.260858077652	932.650113307453	561.310261422139	957.959139356833	954.110288576629	283.937196919017	1024.635692086997	768.342545046391	537.764599522022	981.860550290671	645.478327069180	612.495447375120	1077.640407814702	612.731428826705	538.429131343000	1114.025979348057	527.399105711255	558.311075708727	955.128929824991	728.271767463436	313.665998525346	841.381950516366	636.274597888190	242.505095924392	894.600806122126	540.981377991367	310.352397762939	880.015031645591	475.886257243863	318.823922199709	847.424306469060	411.111678308983	309.176475691902	751.624113295662	304.737633777883	251.777398722683	785.763795878316	190.539125112020	329.240105980939	1092.896773006055	437.119397274323	569.279502890563	1031.963940292073	327.310345199661	632.862132854610	1098.298784212859	236.950989273277	586.260671739900	998.213122209261	53.246969128093	560.331632703946	1162.829985158567	123.404759367507	602.633731402559	1081.126618026904	50.143759045570	634.441038361629	1284.927193571029	82.534713737218	630.718973694901	645.856656784905	39.044391997053	364.995078631822	724.233092332674	34.861406718786	289.018589275656	805.885239290362	95.171461923496	320.177766728215	935.772189199684	42.082433977304	300.354727436389	1021.022239700134	1116.290853019751	87.002157875782	1261.326984178013	1136.002669747545	166.325853488275	790.647578218046	1118.751784823429	716.667605715556	753.779255791943	861.861665766023	746.420059442318	
20	53.450357142857	732.650268078532	1001.682438753451	423.703197858836	950.130262066254	1421.309582908906	258.044187444933	1030.864138230896	1344.543325302549	429.095893034796	934.708868406862	1426.583546495974	591.730607796718	938.457858606138	1481.724704845127	410.890443848088	944.914617499087	930.433385153086	563.116406499397	958.874818642459	952.518179456798	285.816190672259	1024.879640240670	764.605184580898	539.392910166320	980.298392670978	641.956656851029	613.529744193765	1075.807161289590	608.710948012846	539.441012179742	1111.078768186335	524.103254309938	558.778367479701	954.090729662414	726.366349505663	314.932202156435	839.266653690690	635.451559662427	243.632924549305	891.505693998135	539.501758029688	311.353323513922	876.578745634813	474.258706112276	319.583646917556	842.999660933945	409.858598553705	309.966663734587	746.038213848985	304.572319403591	252.358261193499	778.956957533637	189.865286243001	329.540135972948	1091.437307819135	433.750805360627	570.008830633286	1031.738409750753	322.755130049695	632.611123154412	1100.074765245271	233.651369841721	586.150355636520	1003.134098304288	48.869796215741	558.798527543273	1166.395189556334	121.101536189760	602.381114197559	1085.406786960745	47.126998047663	633.725917387436	1288.937633498405	81.952366907611	631.694404319372	638.023984861344	38.910323764767	364.953979901902	716.407969245962	34.769191984751	289.021594610767	798.035864102901	95.064262672014	320.262285261320	927.951371179887	41.921193985716	300.337169444183	1023.257262157359	1116.422149585881	87.641082983854	1260.891430828536	1148.186406966462	169.375498955701	783.714672285535	1122.610153098362	719.497369046032	739.967118405239	866.937723661764	748.839480335765	
21	53.461428571429	733.931536113600	999.464451901274	426.457093028365	950.072204050033	1419.553096293825	260.207092829556	1031.405099311904	1343.064239528729	431.049842862536	935.459388549629	1425.190400170313	593.773466791054	938.801111684435	1479.890066656538	412.835895848018	946.718525373965	928.180762222165	565.111593049545	959.884658307292	950.861107187601	287.950613347683	1025.558016792406	761.032779236968	541.212141671362	979.062396225394	638.520839184100	614.453815695929	1074.476604827044	604.917270636345	540.564367966647	1108.423003765927	520.689065312356	559.255199379790	953.528499883731	724.452907693517	316.417030600152	837.742447294120	634.461925100033	245.079187710526	889.132667047559	537.920553002650	312.680419886479	873.860598643090	472.411727395782	320.704957048211	839.221151467676	408.353210597285	311.062918141757	740.923671961105	304.375373216831	253.166248463255	772.350821980085	189.073796955370	329.976014162446	1089.848356591868	430.208571389522	570.600776527294	1030.698443217048	318.406010063166	632.116184319220	1100.366331982856	230.210395448071	585.730425803396	1005.076181753435	45.552442448961	556.993936085804	1167.555509384775	118.239167653488	601.673627059518	1086.703410638648	44.420095918037	632.672318578276	1290.186731042652	79.692746542559	632.029165423035	630.180849498074	38.801802407906	364.894432939407	708.598195320306	34.676579587149	289.029350552184	790.216483892931	94.950080519389	320.377641555928	920.164110034493	41.710255315112	300.310593252319	1025.069896399415	1116.260407119922	88.513910133946	1259.664579841774	1159.243719566237	172.393490635639	777.580973448334	1126.290105166780	722.174082002353	727.362505523386	871.822507867172	751.006472065472	
